<?xml version="1.0" standalone="no"?>
<!DOCTYPE svg PUBLIC "-//W3C//DTD SVG 20010904//EN"
 "http://www.w3.org/TR/2001/REC-SVG-20010904/DTD/svg10.dtd">
<svg version="1.0" xmlns="http://www.w3.org/2000/svg"
 width="512.000000pt" height="512.000000pt" viewBox="0 0 512.000000 512.000000"
 preserveAspectRatio="xMidYMid meet">
<metadata>
Created by potrace 1.11, written by Peter Selinger 2001-2013
</metadata>
<g transform="translate(0.000000,512.000000) scale(0.100000,-0.100000)"
fill="#000000" stroke="none">
<path d="M2514 4949 c-35 -18 -140 -195 -369 -623 -6 -12 -39 -27 -94 -43
-327 -94 -647 -303 -866 -568 -28 -33 -53 -62 -56 -65 -19 -16 -126 -187 -169
-270 -133 -259 -199 -530 -198 -815 1 -219 25 -365 96 -580 42 -127 160 -372
185 -383 4 -2 7 -8 7 -13 0 -5 18 -32 41 -61 42 -55 43 -65 24 -158 -12 -62
-25 -127 -29 -150 -2 -14 -7 -36 -10 -50 -3 -14 -8 -41 -11 -60 -2 -19 -7 -48
-10 -65 -13 -76 -16 -98 -20 -133 -3 -20 -7 -48 -10 -62 -8 -43 -13 -81 -25
-185 -6 -55 -13 -111 -15 -125 -5 -37 -14 -124 -20 -217 -5 -68 -3 -88 11
-112 25 -42 65 -57 112 -42 31 10 62 43 194 209 87 108 168 209 180 224 13 14
39 46 58 69 47 58 289 340 309 360 9 9 43 47 76 84 127 145 166 186 358 380
343 345 524 480 617 461 93 -18 264 -193 462 -473 l37 -52 -49 -36 c-63 -46
-223 -126 -320 -159 -162 -55 -268 -71 -460 -70 -179 0 -267 14 -429 66 l-65
21 -20 -25 c-61 -73 -79 -99 -111 -163 -20 -39 -38 -93 -41 -121 l-6 -51 108
-36 c130 -43 258 -72 374 -86 86 -10 380 -8 435 4 17 3 68 12 115 21 78 14
114 23 225 59 59 19 178 70 230 98 11 6 45 24 75 40 54 30 173 109 260 175
123 92 266 257 385 441 91 141 192 380 226 536 7 33 13 62 14 65 1 3 5 28 10
55 4 28 10 59 12 70 10 39 11 371 2 430 -5 33 -12 76 -14 95 -3 19 -12 64 -21
100 -141 616 -603 1117 -1206 1311 l-135 43 -59 116 c-59 116 -197 365 -250
453 -40 66 -98 91 -150 66z m901 -1282 c250 -195 430 -473 506 -782 45 -187
47 -444 5 -630 -31 -136 -96 -292 -96 -231 0 7 -20 83 -44 167 -153 531 -342
1067 -540 1526 l-35 83 81 -51 c45 -28 100 -65 123 -82z m-1544 91 c-5 -13
-38 -91 -74 -175 -162 -376 -348 -905 -468 -1328 -34 -121 -63 -221 -64 -223
-6 -7 -65 192 -80 268 -19 94 -27 342 -15 430 16 104 22 135 46 218 67 232
180 420 358 597 93 92 272 233 298 235 4 0 4 -10 -1 -22z"/>
<path d="M3909 1270 c-41 -12 -126 -61 -220 -126 -77 -53 -85 -62 -75 -79 6
-11 27 -47 48 -81 38 -64 243 -438 292 -535 43 -83 96 -108 157 -72 38 22 51
59 44 119 -9 70 -70 429 -95 554 -11 58 -23 120 -26 139 -10 61 -21 78 -54 85
-37 7 -36 7 -71 -4z"/>
</g>
</svg>
